<mxfile host="app.diagrams.net" agent="Mozilla/5.0 (Windows NT 10.0; Win64; x64) AppleWebKit/537.36 (KHTML, like Gecko) Chrome/128.0.0.0 Safari/537.36" version="24.7.12">
  <diagram name="Страница — 1" id="vcI2YsEcuvfL2-EdSnjC">
    <mxGraphModel dx="2072" dy="708" grid="1" gridSize="10" guides="1" tooltips="1" connect="1" arrows="1" fold="1" page="1" pageScale="1" pageWidth="827" pageHeight="1169" math="0" shadow="0">
      <root>
        <mxCell id="0" />
        <mxCell id="1" parent="0" />
        <mxCell id="l7kqNaPGzeGU8gJ6Eb8e-3" value="Пользователь" style="shape=umlActor;verticalLabelPosition=bottom;verticalAlign=top;html=1;" vertex="1" parent="1">
          <mxGeometry x="-790" y="510" width="50" height="130" as="geometry" />
        </mxCell>
        <mxCell id="l7kqNaPGzeGU8gJ6Eb8e-12" value="&lt;span style=&quot;color: rgb(60, 64, 67); font-size: 14px; letter-spacing: 0.2px; text-align: left;&quot;&gt;&lt;font face=&quot;Verdana&quot;&gt;Заказ карты онлайн&lt;/font&gt;&lt;/span&gt;" style="html=1;whiteSpace=wrap;fillColor=none;labelPosition=center;verticalLabelPosition=middle;align=center;verticalAlign=top;" vertex="1" parent="1">
          <mxGeometry x="-670" y="165" width="490" height="820" as="geometry" />
        </mxCell>
        <mxCell id="l7kqNaPGzeGU8gJ6Eb8e-13" value="Выпуск онлайн карты" style="ellipse;whiteSpace=wrap;html=1;" vertex="1" parent="1">
          <mxGeometry x="-623" y="580" width="210" height="50" as="geometry" />
        </mxCell>
        <mxCell id="l7kqNaPGzeGU8gJ6Eb8e-14" value="Заказ карты" style="ellipse;whiteSpace=wrap;html=1;" vertex="1" parent="1">
          <mxGeometry x="-518" y="480" width="210" height="50" as="geometry" />
        </mxCell>
        <mxCell id="l7kqNaPGzeGU8gJ6Eb8e-15" value="Регистрация в приложении" style="ellipse;whiteSpace=wrap;html=1;" vertex="1" parent="1">
          <mxGeometry x="-518" y="300" width="210" height="50" as="geometry" />
        </mxCell>
        <mxCell id="l7kqNaPGzeGU8gJ6Eb8e-16" value="Вход в аккаунт" style="ellipse;whiteSpace=wrap;html=1;" vertex="1" parent="1">
          <mxGeometry x="-518" y="220" width="210" height="50" as="geometry" />
        </mxCell>
        <mxCell id="l7kqNaPGzeGU8gJ6Eb8e-18" value="Выпуск физического пластика" style="ellipse;whiteSpace=wrap;html=1;" vertex="1" parent="1">
          <mxGeometry x="-403" y="580" width="210" height="50" as="geometry" />
        </mxCell>
        <mxCell id="l7kqNaPGzeGU8gJ6Eb8e-23" value="Блокировка карты" style="ellipse;whiteSpace=wrap;html=1;" vertex="1" parent="1">
          <mxGeometry x="-518" y="780" width="210" height="50" as="geometry" />
        </mxCell>
        <mxCell id="l7kqNaPGzeGU8gJ6Eb8e-24" value="Общение с тех поддержкой" style="ellipse;whiteSpace=wrap;html=1;" vertex="1" parent="1">
          <mxGeometry x="-518" y="680" width="210" height="50" as="geometry" />
        </mxCell>
        <mxCell id="l7kqNaPGzeGU8gJ6Eb8e-26" value="Временная блокировка карты" style="ellipse;whiteSpace=wrap;html=1;" vertex="1" parent="1">
          <mxGeometry x="-628" y="890" width="210" height="50" as="geometry" />
        </mxCell>
        <mxCell id="l7kqNaPGzeGU8gJ6Eb8e-27" value="Полная блокировка карты" style="ellipse;whiteSpace=wrap;html=1;" vertex="1" parent="1">
          <mxGeometry x="-408" y="890" width="210" height="50" as="geometry" />
        </mxCell>
        <mxCell id="l7kqNaPGzeGU8gJ6Eb8e-28" value="" style="endArrow=classic;html=1;rounded=0;dashed=1;exitX=0.5;exitY=0;exitDx=0;exitDy=0;entryX=0.5;entryY=1;entryDx=0;entryDy=0;" edge="1" parent="1" source="l7kqNaPGzeGU8gJ6Eb8e-14" target="l7kqNaPGzeGU8gJ6Eb8e-47">
          <mxGeometry width="50" height="50" relative="1" as="geometry">
            <mxPoint x="-260" y="747.3199999999999" as="sourcePoint" />
            <mxPoint x="-234.2462120245873" y="709.9976695296637" as="targetPoint" />
          </mxGeometry>
        </mxCell>
        <mxCell id="l7kqNaPGzeGU8gJ6Eb8e-29" value="&quot;include&quot;" style="edgeLabel;html=1;align=center;verticalAlign=middle;resizable=0;points=[];rotation=0;" vertex="1" connectable="0" parent="l7kqNaPGzeGU8gJ6Eb8e-28">
          <mxGeometry x="-0.007" relative="1" as="geometry">
            <mxPoint x="-27" y="-5" as="offset" />
          </mxGeometry>
        </mxCell>
        <mxCell id="l7kqNaPGzeGU8gJ6Eb8e-32" value="&lt;span style=&quot;color: rgb(60, 64, 67); font-family: Verdana; font-size: 14px; letter-spacing: 0.2px; text-align: left;&quot;&gt;Я, как клиент банка, хочу иметь возможность заказать карту онлайн, чтобы начать ее использование до получения физического пластика и не посещать банк&lt;/span&gt;" style="text;html=1;align=center;verticalAlign=middle;whiteSpace=wrap;rounded=0;fontSize=16;" vertex="1" parent="1">
          <mxGeometry x="-633" y="40" width="440" height="100" as="geometry" />
        </mxCell>
        <mxCell id="l7kqNaPGzeGU8gJ6Eb8e-34" value="" style="endArrow=block;endSize=11;endFill=0;html=1;rounded=0;fontSize=12;curved=1;exitX=0.5;exitY=0;exitDx=0;exitDy=0;entryX=0;entryY=1;entryDx=0;entryDy=0;" edge="1" parent="1" source="l7kqNaPGzeGU8gJ6Eb8e-26" target="l7kqNaPGzeGU8gJ6Eb8e-23">
          <mxGeometry width="160" relative="1" as="geometry">
            <mxPoint x="-580" y="1000" as="sourcePoint" />
            <mxPoint x="-420" y="1000" as="targetPoint" />
          </mxGeometry>
        </mxCell>
        <mxCell id="l7kqNaPGzeGU8gJ6Eb8e-40" value="" style="endArrow=block;endSize=11;endFill=0;html=1;rounded=0;fontSize=12;curved=1;exitX=0.5;exitY=0;exitDx=0;exitDy=0;entryX=1;entryY=1;entryDx=0;entryDy=0;" edge="1" parent="1" source="l7kqNaPGzeGU8gJ6Eb8e-27" target="l7kqNaPGzeGU8gJ6Eb8e-23">
          <mxGeometry width="160" relative="1" as="geometry">
            <mxPoint x="-505" y="920" as="sourcePoint" />
            <mxPoint x="-479" y="883" as="targetPoint" />
          </mxGeometry>
        </mxCell>
        <mxCell id="l7kqNaPGzeGU8gJ6Eb8e-41" value="" style="endArrow=block;endSize=11;endFill=0;html=1;rounded=0;fontSize=12;curved=1;exitX=0.5;exitY=0;exitDx=0;exitDy=0;entryX=1;entryY=1;entryDx=0;entryDy=0;" edge="1" parent="1" source="l7kqNaPGzeGU8gJ6Eb8e-18" target="l7kqNaPGzeGU8gJ6Eb8e-14">
          <mxGeometry width="160" relative="1" as="geometry">
            <mxPoint x="-275" y="650" as="sourcePoint" />
            <mxPoint x="-321" y="613" as="targetPoint" />
          </mxGeometry>
        </mxCell>
        <mxCell id="l7kqNaPGzeGU8gJ6Eb8e-42" value="" style="endArrow=block;endSize=11;endFill=0;html=1;rounded=0;fontSize=12;curved=1;exitX=0.5;exitY=0;exitDx=0;exitDy=0;entryX=0;entryY=1;entryDx=0;entryDy=0;" edge="1" parent="1" source="l7kqNaPGzeGU8gJ6Eb8e-13" target="l7kqNaPGzeGU8gJ6Eb8e-14">
          <mxGeometry width="160" relative="1" as="geometry">
            <mxPoint x="-285" y="500" as="sourcePoint" />
            <mxPoint x="-321" y="443" as="targetPoint" />
          </mxGeometry>
        </mxCell>
        <mxCell id="l7kqNaPGzeGU8gJ6Eb8e-45" value="Менеджер тех поддержки" style="shape=umlActor;verticalLabelPosition=bottom;verticalAlign=top;html=1;" vertex="1" parent="1">
          <mxGeometry x="-100" y="520" width="50" height="130" as="geometry" />
        </mxCell>
        <mxCell id="l7kqNaPGzeGU8gJ6Eb8e-47" value="Заполнение данных для&amp;nbsp; заказа карты" style="ellipse;whiteSpace=wrap;html=1;" vertex="1" parent="1">
          <mxGeometry x="-518" y="380" width="210" height="50" as="geometry" />
        </mxCell>
        <mxCell id="l7kqNaPGzeGU8gJ6Eb8e-58" value="" style="endArrow=none;html=1;rounded=0;fontSize=12;startSize=8;endSize=8;curved=1;exitX=0.5;exitY=0.5;exitDx=0;exitDy=0;exitPerimeter=0;entryX=0;entryY=0.5;entryDx=0;entryDy=0;" edge="1" parent="1" source="l7kqNaPGzeGU8gJ6Eb8e-3" target="l7kqNaPGzeGU8gJ6Eb8e-24">
          <mxGeometry width="50" height="50" relative="1" as="geometry">
            <mxPoint x="-700" y="750" as="sourcePoint" />
            <mxPoint x="-650" y="700" as="targetPoint" />
          </mxGeometry>
        </mxCell>
        <mxCell id="l7kqNaPGzeGU8gJ6Eb8e-59" value="" style="endArrow=none;html=1;rounded=0;fontSize=12;startSize=8;endSize=8;curved=1;exitX=0.5;exitY=0.5;exitDx=0;exitDy=0;exitPerimeter=0;entryX=0;entryY=0.5;entryDx=0;entryDy=0;" edge="1" parent="1" source="l7kqNaPGzeGU8gJ6Eb8e-3" target="l7kqNaPGzeGU8gJ6Eb8e-14">
          <mxGeometry width="50" height="50" relative="1" as="geometry">
            <mxPoint x="-678" y="620" as="sourcePoint" />
            <mxPoint x="-628" y="570" as="targetPoint" />
          </mxGeometry>
        </mxCell>
        <mxCell id="l7kqNaPGzeGU8gJ6Eb8e-61" value="" style="endArrow=none;html=1;rounded=0;fontSize=12;startSize=8;endSize=8;curved=1;entryX=0.5;entryY=0.5;entryDx=0;entryDy=0;entryPerimeter=0;exitX=1;exitY=0.5;exitDx=0;exitDy=0;" edge="1" parent="1" source="l7kqNaPGzeGU8gJ6Eb8e-24" target="l7kqNaPGzeGU8gJ6Eb8e-45">
          <mxGeometry width="50" height="50" relative="1" as="geometry">
            <mxPoint x="-248" y="730" as="sourcePoint" />
            <mxPoint x="-198" y="680" as="targetPoint" />
          </mxGeometry>
        </mxCell>
        <mxCell id="l7kqNaPGzeGU8gJ6Eb8e-62" value="" style="endArrow=none;html=1;rounded=0;fontSize=12;startSize=8;endSize=8;curved=1;exitX=0.5;exitY=0.5;exitDx=0;exitDy=0;exitPerimeter=0;entryX=0;entryY=0.5;entryDx=0;entryDy=0;" edge="1" parent="1" source="l7kqNaPGzeGU8gJ6Eb8e-3" target="l7kqNaPGzeGU8gJ6Eb8e-15">
          <mxGeometry width="50" height="50" relative="1" as="geometry">
            <mxPoint x="-740" y="350" as="sourcePoint" />
            <mxPoint x="-690" y="300" as="targetPoint" />
          </mxGeometry>
        </mxCell>
        <mxCell id="l7kqNaPGzeGU8gJ6Eb8e-63" value="" style="endArrow=none;html=1;rounded=0;fontSize=12;startSize=8;endSize=8;curved=1;exitX=0.5;exitY=0.5;exitDx=0;exitDy=0;exitPerimeter=0;entryX=0;entryY=0.5;entryDx=0;entryDy=0;" edge="1" parent="1" source="l7kqNaPGzeGU8gJ6Eb8e-3" target="l7kqNaPGzeGU8gJ6Eb8e-16">
          <mxGeometry width="50" height="50" relative="1" as="geometry">
            <mxPoint x="-730" y="360" as="sourcePoint" />
            <mxPoint x="-680" y="310" as="targetPoint" />
          </mxGeometry>
        </mxCell>
        <mxCell id="l7kqNaPGzeGU8gJ6Eb8e-64" value="" style="endArrow=none;html=1;rounded=0;fontSize=12;startSize=8;endSize=8;curved=1;exitX=0.5;exitY=0.5;exitDx=0;exitDy=0;exitPerimeter=0;entryX=1;entryY=0.5;entryDx=0;entryDy=0;" edge="1" parent="1" source="l7kqNaPGzeGU8gJ6Eb8e-45" target="l7kqNaPGzeGU8gJ6Eb8e-16">
          <mxGeometry width="50" height="50" relative="1" as="geometry">
            <mxPoint x="-150" y="400" as="sourcePoint" />
            <mxPoint x="-100" y="350" as="targetPoint" />
          </mxGeometry>
        </mxCell>
        <mxCell id="l7kqNaPGzeGU8gJ6Eb8e-65" value="" style="endArrow=none;html=1;rounded=0;fontSize=12;startSize=8;endSize=8;curved=1;exitX=0.5;exitY=0.5;exitDx=0;exitDy=0;exitPerimeter=0;entryX=0;entryY=0.5;entryDx=0;entryDy=0;" edge="1" parent="1" source="l7kqNaPGzeGU8gJ6Eb8e-3" target="l7kqNaPGzeGU8gJ6Eb8e-23">
          <mxGeometry width="50" height="50" relative="1" as="geometry">
            <mxPoint x="-755" y="585" as="sourcePoint" />
            <mxPoint x="-508" y="715" as="targetPoint" />
          </mxGeometry>
        </mxCell>
      </root>
    </mxGraphModel>
  </diagram>
</mxfile>
